# xmcd
#
# Track frame offsets: 
#        150
#        20202
#        39852
#        61915
#        84522
#        106915
#        125575
#        147290
#        167732
#        188035
#        213567
#        231262
#        258337
#        278212
#        304087
#
# Disc length: 4336 seconds
#
# Revision: 0
# Processed by: cddbd v1.5.2PL0 Copyright (c) Steve Scherf et al.
# Submitted via: ExactAudioCopy v0.99pb4
#
DISCID=d310ee0f
DTITLE=Night Fever v.2 - Night Fever v.2
DYEAR=1992
DGENRE=Blues
TTITLE0=Tony Braxton -Let it Flow
TTITLE1=Aretha Franklin - It Hurts Like Her
TTITLE2=Brandy - Sittin` Up in my Room
TTITLE3=TLC - This is How It Works
TTITLE4=Mary J.Blige - Not Gon` Cry
TTITLE5=Chaka Khan - My Funny Valentine
TTITLE6=Sonja Marie - And I Gave my Love to you
TTITLE7=SWV - All Night Long
TTITLE8=Ehante Moore - Wey U
TTITLE9=Browstone - Grapevyne
TTITLE10=Portrait - How Deep is Your Love
TTITLE11=Barry White - Practice What you Preach
TTITLE12=Tina Arena - Chains
TTITLE13=Anita Baker - Body and Soul
TTITLE14=Al Jarreau - So Good
EXTD=
EXTT0=
EXTT1=
EXTT2=
EXTT3=
EXTT4=
EXTT5=
EXTT6=
EXTT7=
EXTT8=
EXTT9=
EXTT10=
EXTT11=
EXTT12=
EXTT13=
EXTT14=
PLAYORDER=
